<svg width="512" height="512" viewBox="0 0 512 512" fill="none" xmlns="http://www.w3.org/2000/svg">
  <rect width="512" height="512" rx="64" fill="#3B82F6"/>
  <path d="M128 160C128 124.7 156.7 96 192 96H320C355.3 96 384 124.7 384 160V352C384 387.3 355.3 416 320 416H192C156.7 416 128 387.3 128 352V160Z" fill="white"/>
  <rect x="176" y="112" width="160" height="8" rx="4" fill="#3B82F6"/>
  <rect x="176" y="128" width="160" height="4" rx="2" fill="#3B82F6"/>
  <rect x="176" y="140" width="160" height="4" rx="2" fill="#3B82F6"/>
  <circle cx="256" cy="320" r="24" fill="#3B82F6"/>
  <rect x="200" y="360" width="112" height="4" rx="2" fill="#3B82F6"/>
  <rect x="200" y="372" width="80" height="4" rx="2" fill="#3B82F6"/>
</svg>
